<svg width="53" height="53" viewBox="0 0 53 53" fill="none" xmlns="http://www.w3.org/2000/svg">
<g clip-path="url(#clip0_485_17181)">
<path d="M38.4586 9.99671C38.6011 10.1346 38.7453 10.2707 38.8896 10.4067C41.9861 13.3873 43.6916 17.7467 43.805 22.0077C43.846 25.9955 42.6875 29.9866 40.1646 33.1255C40.1147 33.1876 40.0649 33.2497 40.0135 33.3137C39.3341 34.1482 38.6056 34.909 37.8045 35.6275C37.7433 35.6825 37.6821 35.7376 37.6191 35.7943C37.5659 35.8413 37.5127 35.8884 37.4578 35.9368C37.2671 36.1161 37.2671 36.1161 37.1411 36.3013C36.861 36.6772 36.7238 36.8337 36.2538 36.9436C36.1042 36.9477 35.9545 36.9478 35.805 36.9448C35.7221 36.946 35.6392 36.9472 35.5538 36.9484C35.277 36.9516 35.0004 36.9495 34.7235 36.9475C34.5247 36.9486 34.3259 36.9501 34.1271 36.9518C33.5877 36.9556 33.0484 36.9547 32.509 36.9528C32.0585 36.9517 31.6081 36.9528 31.1576 36.9539C30.0949 36.9566 29.0323 36.9556 27.9696 36.9522C26.8735 36.9488 25.7775 36.951 24.6814 36.956C23.74 36.9602 22.7987 36.9612 21.8573 36.9595C21.2952 36.9585 20.7332 36.9586 20.171 36.9618C19.6424 36.9646 19.114 36.9634 18.5854 36.959C18.3915 36.9581 18.1977 36.9586 18.0039 36.9606C16.5377 36.9744 16.5377 36.9744 16.0839 36.669C15.9007 36.462 15.7659 36.2644 15.6314 36.024C15.2462 35.6151 14.8481 35.2301 14.4151 34.8724C11.339 32.2064 9.55756 27.8581 9.2425 23.8706C8.96229 19.6027 10.101 15.2466 12.8364 11.9048C12.8809 11.85 12.9253 11.7952 12.9711 11.7388C15.8576 8.19199 19.9433 5.7686 24.5337 5.27983C29.6826 4.76843 34.7362 6.38709 38.4586 9.99671ZM23.6021 13.4576C23.4729 13.5015 23.3437 13.5454 23.2106 13.5906C21.4335 14.2321 19.7686 15.3495 18.4716 16.7211C18.3228 16.8736 18.3228 16.8736 18.0122 17.1259C17.6227 17.4586 17.3063 17.8281 16.9771 18.2193C16.8979 18.31 16.8188 18.4008 16.7373 18.4942C15.9745 19.3823 15.192 20.3581 14.6997 21.4283C15.5327 22.7196 16.4332 23.9367 17.4946 25.0513C17.5525 25.1126 17.6104 25.1738 17.6701 25.237C19.834 27.5131 22.6303 29.6009 25.8992 29.7443C27.7973 29.7763 29.3609 29.4178 31.0552 28.5708C31.2371 28.48 31.2371 28.48 31.4227 28.3873C34.3334 26.8248 36.5371 24.1606 38.3013 21.4283C37.5803 20.1034 36.6975 18.9786 35.6661 17.8833C35.481 17.6828 35.3059 17.4833 35.1335 17.2727C34.8079 16.885 34.4431 16.578 34.0571 16.2525C33.9664 16.1722 33.8757 16.0918 33.7822 16.0091C32.9969 15.3273 32.1703 14.79 31.2622 14.2857C31.1073 14.1976 31.1073 14.1976 30.9492 14.1078C28.7211 12.9113 25.9984 12.6357 23.6021 13.4576Z" fill="#FFA113"/>
<path d="M31.1776 17.7333C32.4816 18.7541 33.7617 19.9342 34.6777 21.324C34.4265 21.7792 34.1176 22.1562 33.7784 22.5468C33.7226 22.6112 33.6667 22.6756 33.6092 22.742C32.0068 24.5773 29.9166 26.319 27.4316 26.7068C25.0078 26.8674 22.9733 26.049 21.1304 24.4704C20.0925 23.5515 19.0997 22.5811 18.3223 21.4275C18.5593 21.0043 18.8427 20.6369 19.1569 20.2694C19.2072 20.2105 19.2576 20.1515 19.3096 20.0908C22.5066 16.3892 26.9088 14.6317 31.1776 17.7333ZM24.9473 19.8748C24.9473 20.8654 24.9473 21.8561 24.9473 22.8767C25.9721 22.8767 26.9969 22.8767 28.0527 22.8767C28.0527 21.8861 28.0527 20.8954 28.0527 19.8748C27.0279 19.8748 26.0031 19.8748 24.9473 19.8748Z" fill="#FFA113"/>
<path d="M18.0117 39.8535C23.6481 39.8535 29.2846 39.8535 35.0918 39.8535C34.9893 40.5367 34.8868 41.2199 34.7812 41.9238C34.7471 43.1878 34.7129 44.4517 34.6777 45.7539C29.2804 45.7539 23.8831 45.7539 18.3223 45.7539C18.2881 44.4558 18.2539 43.1577 18.2188 41.8203C18.1504 41.3421 18.0821 40.8638 18.0117 40.3711C18.0117 40.2003 18.0117 40.0295 18.0117 39.8535Z" fill="#FFA113"/>
<path d="M21.2207 48.7559C24.705 48.7559 28.1894 48.7559 31.7793 48.7559C31.4697 49.762 31.2809 50.3727 30.6406 51.1367C30.5736 51.2177 30.5067 51.2987 30.4376 51.3822C29.5901 52.3163 28.3243 52.9723 27.0552 53.0348C25.3078 53.0661 23.9452 52.7051 22.644 51.4796C21.8535 50.6519 21.5499 49.8533 21.2207 48.7559Z" fill="#FFA113"/>
<path d="M43.0557 39.3598C43.2933 39.4474 43.4139 39.5425 43.5938 39.7194C43.6542 39.7781 43.7146 39.8369 43.7768 39.8974C43.8406 39.9613 43.9045 40.0251 43.9703 40.0909C44.0366 40.1564 44.1029 40.2219 44.1712 40.2893C44.3109 40.4279 44.4501 40.5669 44.589 40.7063C44.8024 40.9198 45.018 41.131 45.2337 41.3421C45.3691 41.477 45.5044 41.612 45.6395 41.7471C45.7044 41.8103 45.7693 41.8735 45.8361 41.9386C46.0142 42.1196 46.0142 42.1196 46.2715 42.4406C46.2256 42.8535 46.0191 43.0396 45.7276 43.3253C45.595 43.4564 45.595 43.4564 45.4597 43.5902C45.3668 43.6805 45.2739 43.7708 45.1781 43.8639C45.0848 43.9559 44.9914 44.0478 44.8953 44.1425C44.6646 44.3695 44.4332 44.5958 44.2012 44.8214C43.9053 44.6872 43.6929 44.5457 43.4645 44.3153C43.4045 44.2552 43.3444 44.1952 43.2825 44.1333C43.219 44.0687 43.1554 44.0041 43.09 43.9375C43.024 43.8712 42.9579 43.8048 42.8899 43.7365C42.6795 43.525 42.4699 43.3127 42.2603 43.1005C42.1176 42.9568 41.9748 42.8131 41.832 42.6694C41.4825 42.3177 41.1337 41.9652 40.7852 41.6124C41.0298 41.0494 41.4845 40.6638 41.9109 40.2344C41.9954 40.1465 42.0798 40.0587 42.1668 39.9681C42.2486 39.8856 42.3304 39.8031 42.4147 39.718C42.4893 39.6421 42.5639 39.5661 42.6407 39.4878C42.8555 39.3351 42.8555 39.3351 43.0557 39.3598Z" fill="#FFA113"/>
<path d="M4.4509 27.8457C4.75834 28.8363 5.06578 29.827 5.38254 30.8477C4.59398 31.1631 3.82359 31.4408 3.01515 31.691C2.81232 31.754 2.6099 31.8182 2.40747 31.8824C2.27837 31.9226 2.14927 31.9627 2.01626 32.0041C1.84156 32.0587 1.84156 32.0587 1.66333 32.1144C1.36908 32.1875 1.12905 32.2098 0.827849 32.1934C0.685667 31.7735 0.546247 31.3527 0.407316 30.9318C0.366951 30.8127 0.326586 30.6936 0.284998 30.5709C0.247302 30.4558 0.209605 30.3407 0.170767 30.2221C0.135531 30.1164 0.100295 30.0107 0.0639911 29.9018C-0.00402114 29.5882 0.0164953 29.3938 0.103239 29.0879C0.65562 28.9102 1.20824 28.7333 1.76111 28.5572C1.94913 28.4971 2.13709 28.4369 2.32498 28.3764C2.59512 28.2895 2.86549 28.2034 3.13592 28.1174C3.26178 28.0767 3.26178 28.0767 3.39018 28.0351C3.4689 28.0102 3.54763 27.9854 3.62874 27.9597C3.6977 27.9377 3.76666 27.9156 3.83771 27.8929C4.03683 27.8457 4.03683 27.8457 4.4509 27.8457Z" fill="#FFA113"/>
<path d="M52.1719 12.5254C52.3111 12.9455 52.4487 13.3662 52.5859 13.787C52.6254 13.9061 52.6649 14.0252 52.7056 14.1479C52.7617 14.3205 52.7617 14.3205 52.8188 14.4966C52.8535 14.6023 52.8882 14.7081 52.924 14.817C52.9973 15.1026 53.0151 15.3377 53 15.6309C52.2238 15.961 51.4326 16.2256 50.6269 16.4742C50.423 16.5373 50.2194 16.6014 50.0158 16.6656C49.8217 16.7259 49.8217 16.7259 49.6236 16.7873C49.4481 16.8419 49.4481 16.8419 49.269 16.8976C48.9629 16.9766 48.9629 16.9766 48.5488 16.9766C48.4099 16.5369 48.2722 16.0969 48.1348 15.6567C48.0953 15.5318 48.0558 15.4069 48.0151 15.2783C47.9777 15.1582 47.9404 15.0381 47.9019 14.9143C47.8672 14.8038 47.8325 14.6932 47.7967 14.5792C47.7207 14.2852 47.7207 14.2852 47.7207 13.8711C48.3212 13.6791 48.9219 13.4874 49.5226 13.2961C49.7271 13.231 49.9315 13.1657 50.1359 13.1003C50.4293 13.0065 50.7227 12.9131 51.0162 12.8198C51.108 12.7903 51.1998 12.7609 51.2943 12.7306C51.3793 12.7036 51.4642 12.6767 51.5517 12.6489C51.6267 12.625 51.7016 12.6011 51.7788 12.5765C51.9648 12.5254 51.9648 12.5254 52.1719 12.5254Z" fill="#FFA113"/>
<path d="M0.828125 12.5254C1.83628 12.76 2.8183 13.0604 3.8042 13.3729C3.95811 13.4214 4.11204 13.4699 4.26598 13.5183C4.63838 13.6355 5.01063 13.7532 5.38281 13.8711C5.18693 14.6083 4.97522 15.338 4.74231 16.0643C4.69998 16.1973 4.69998 16.1973 4.65679 16.333C4.58846 16.5476 4.51985 16.7621 4.45117 16.9766C3.63109 16.8151 2.84118 16.5689 2.04537 16.3173C1.81612 16.2449 1.58669 16.1731 1.35723 16.1013C1.21118 16.0555 1.06513 16.0096 0.919106 15.9636C0.85064 15.9422 0.782174 15.9207 0.711634 15.8986C0.466338 15.8209 0.23055 15.7461 0 15.6309C0.0685726 14.95 0.268128 14.3218 0.47229 13.6705C0.506383 13.5602 0.540477 13.45 0.575603 13.3363C0.659291 13.0659 0.743477 12.7956 0.828125 12.5254Z" fill="#FFA113"/>
<path d="M48.6531 27.7422C49.1226 27.8838 49.592 28.0255 50.0614 28.1674C50.2207 28.2155 50.38 28.2636 50.5393 28.3116C51.3634 28.5601 52.1863 28.809 53.0007 29.0879C52.9407 29.7982 52.7521 30.4314 52.5284 31.1064C52.4944 31.2113 52.4603 31.3162 52.4251 31.4243C52.3416 31.6809 52.2574 31.9372 52.1726 32.1934C51.2268 32.0415 50.3264 31.7462 49.4165 31.4558C49.2617 31.4068 49.1068 31.3579 48.9519 31.309C48.5761 31.1903 48.2005 31.0709 47.825 30.9512C47.7021 30.5157 47.7484 30.2473 47.8888 29.8206C47.9261 29.706 47.9633 29.5913 48.0017 29.4732C48.0416 29.3546 48.0815 29.236 48.1226 29.1138C48.1617 28.9935 48.2008 28.8733 48.241 28.7494C48.5324 27.8628 48.5324 27.8628 48.6531 27.7422Z" fill="#FFA113"/>
<path d="M9.83398 39.3359C10.2033 39.4926 10.4382 39.7091 10.7187 39.9934C10.8498 40.1255 10.8498 40.1255 10.9836 40.2603C11.0739 40.3524 11.1642 40.4444 11.2573 40.5393C11.3493 40.6322 11.4412 40.7251 11.5359 40.8207C11.7627 41.05 11.989 41.2796 12.2148 41.5098C11.6137 42.2467 10.9351 42.9045 10.261 43.5736C10.1391 43.695 10.0173 43.8163 9.89545 43.9377C9.59919 44.2329 9.30262 44.5276 9.00586 44.8223C8.63655 44.6656 8.40163 44.4491 8.12112 44.1648C8.03372 44.0767 7.94632 43.9886 7.85627 43.8979C7.76593 43.8058 7.67559 43.7138 7.58252 43.6189C7.44461 43.4796 7.44461 43.4796 7.30392 43.3375C7.07714 43.1082 6.85086 42.8786 6.625 42.6484C7.2261 41.9115 7.90475 41.2537 8.57886 40.5846C8.70073 40.4632 8.82257 40.3419 8.9444 40.2205C9.24065 39.9253 9.53723 39.6306 9.83398 39.3359Z" fill="#FFA113"/>
<path d="M43.9941 0C44.3634 0.156698 44.5984 0.373187 44.8789 0.657486C45.01 0.78959 45.01 0.78959 45.1437 0.924362C45.2341 1.01643 45.3244 1.10851 45.4175 1.20337C45.5094 1.29624 45.6014 1.38911 45.6961 1.4848C45.9229 1.71402 46.1491 1.94371 46.375 2.17383C45.7739 2.91076 45.0953 3.56857 44.4211 4.23767C44.2993 4.35902 44.1774 4.4804 44.0556 4.6018C43.7593 4.89692 43.4628 5.19171 43.166 5.48633C42.7967 5.32963 42.5618 5.11314 42.2813 4.82884C42.1939 4.74077 42.1065 4.6527 42.0164 4.56197C41.9261 4.46989 41.8358 4.37782 41.7427 4.28296C41.6048 4.14365 41.6048 4.14365 41.4641 4.00153C41.2373 3.77231 41.011 3.54262 40.7852 3.3125C41.3863 2.57557 42.0649 1.91776 42.739 1.24866C42.8609 1.12731 42.9827 1.00593 43.1046 0.884533C43.4008 0.589411 43.6974 0.294616 43.9941 0Z" fill="#FFA113"/>
<path d="M8.79883 0C9.09465 0.13428 9.3071 0.275733 9.53547 0.506104C9.59554 0.56619 9.65561 0.626276 9.7175 0.688182C9.78102 0.752778 9.84455 0.817373 9.91 0.883926C9.97605 0.950265 10.0421 1.0166 10.1101 1.08495C10.3205 1.29647 10.5301 1.50869 10.7397 1.72095C10.8824 1.86468 11.0252 2.00836 11.168 2.15199C11.5175 2.50378 11.8663 2.85621 12.2148 3.20898C11.8852 3.5989 11.5563 3.98432 11.1934 4.34402C11.1254 4.41174 11.0573 4.47946 10.9872 4.54923C10.9184 4.61722 10.8495 4.6852 10.7786 4.75525C10.7073 4.82604 10.6361 4.89683 10.5626 4.96976C10.389 5.14219 10.2151 5.31437 10.041 5.48633C9.74519 5.35205 9.53275 5.2106 9.30438 4.98022C9.24431 4.92014 9.18424 4.86005 9.12235 4.79815C9.05882 4.73355 8.99529 4.66895 8.92984 4.6024C8.86379 4.53606 8.79775 4.46972 8.7297 4.40138C8.51934 4.18986 8.30971 3.97763 8.1001 3.76538C7.95741 3.62165 7.81467 3.47797 7.67188 3.33434C7.32237 2.98255 6.97352 2.63012 6.625 2.27734C6.9546 1.88743 7.28353 1.50201 7.64641 1.14231C7.74849 1.04073 7.74849 1.04073 7.85263 0.937099C7.92148 0.869113 7.99034 0.801126 8.06128 0.731079C8.13254 0.66029 8.20379 0.589501 8.27721 0.516567C8.45084 0.344136 8.62472 0.171954 8.79883 0Z" fill="#FFA113"/>
</g>
<defs>
<clipPath id="clip0_485_17181">
<rect width="53" height="53" fill="white"/>
</clipPath>
</defs>
</svg>
