<svg width="58" height="58" viewBox="0 0 58 58" fill="none" xmlns="http://www.w3.org/2000/svg">
<g clip-path="url(#clip0_485_17197)">
<path d="M25.9913 3.37085C26.0895 3.36974 26.1878 3.36864 26.289 3.36749C28.5163 3.34753 30.6651 3.38159 32.8523 3.85097C32.9697 3.87585 33.087 3.90073 33.2079 3.92636C34.7615 4.26539 36.2512 4.72436 37.7234 5.32363C37.801 5.3547 37.8785 5.38576 37.9584 5.41777C39.2125 5.92446 40.4246 6.53685 41.575 7.24941C41.6529 7.29589 41.7309 7.34236 41.8111 7.39025C42.0281 7.58925 42.0281 7.58925 42.0849 7.86001C42.0847 7.96713 42.0845 8.07425 42.0843 8.18462C42.0848 8.30655 42.0853 8.42849 42.0857 8.55412C42.0744 9.11932 42.0621 9.68423 42.0415 10.2492C42.0327 10.5444 42.0285 10.8399 42.0293 11.1353C42.0331 12.7046 41.9727 13.9044 40.854 15.0853C40.3958 15.5196 39.9242 15.9285 39.4226 16.3119C38.9965 16.1491 38.679 15.9693 38.3181 15.6889C34.2283 12.6652 29.1065 11.1251 24.0456 11.8472C19.0285 12.6299 14.5583 15.2969 11.5267 19.374C8.47077 23.6683 7.25604 28.8553 8.10881 34.0676C8.8145 37.9865 10.6415 41.4109 13.3679 44.2924C13.455 44.3854 13.542 44.4784 13.6317 44.5743C17.254 48.3309 22.4017 50.0822 27.5281 50.183C32.5546 50.2035 37.283 48.0442 40.8953 44.6322C41.0204 44.5161 41.0204 44.5161 41.148 44.3977C44.3212 41.3537 46.5016 36.7121 46.6909 32.3136C46.7303 28.7074 46.3562 25.5144 44.5203 22.3158C44.4774 22.2406 44.4345 22.1653 44.3903 22.0878C43.8146 21.0924 43.1728 20.2019 42.4073 19.3444C42.1672 19.0611 41.9875 18.784 41.8015 18.4643C42.5759 17.4293 43.4133 16.3607 44.7368 16.1024C45.5958 16.0009 46.4532 16.0014 47.3169 16.0075C47.6183 16.003 47.9194 15.9953 48.2207 15.9878C48.951 15.9716 49.6805 15.9671 50.4109 15.9721C50.9995 16.8979 51.5343 17.8254 52.0039 18.8183C52.0913 19.0025 52.0913 19.0025 52.1803 19.1904C53.0819 21.1194 53.7069 23.0646 54.1492 25.1478C54.1734 25.2598 54.1975 25.3717 54.2224 25.487C54.9342 28.9441 54.8881 32.8027 54.1492 36.2494C54.1137 36.4207 54.1137 36.4207 54.0775 36.5954C52.7923 42.6418 49.2558 48.4714 44.2937 52.2221C44.2297 52.2709 44.1656 52.3198 44.0996 52.3701C39.7196 55.6991 34.2725 57.9757 28.7114 58.0264C28.6104 58.0275 28.5095 58.0286 28.4055 58.0298C26.1475 58.0495 23.9682 58.0217 21.7508 57.5463C21.5795 57.5108 21.5795 57.5108 21.4048 57.4745C15.3727 56.1925 9.5092 52.657 5.7781 47.6908C5.69564 47.5818 5.69564 47.5818 5.6115 47.4707C3.07897 44.1073 1.32898 40.3713 0.453885 36.2494C0.429736 36.1375 0.405587 36.0256 0.380706 35.9102C-0.33058 32.4559 -0.289109 28.5916 0.453885 25.1478C0.478765 25.0307 0.503644 24.9135 0.529277 24.7927C2.07002 17.7313 6.40005 11.721 12.3528 7.69634C16.4039 5.12034 21.1556 3.41648 25.9913 3.37085Z" fill="#FFA113"/>
<path d="M36.9299 18.578C36.7633 18.9636 36.5482 19.2138 36.2513 19.5089C36.1583 19.6019 36.0653 19.6949 35.9696 19.7906C35.8691 19.8899 35.7687 19.9891 35.6652 20.0914C35.5625 20.1938 35.4597 20.2963 35.3538 20.4018C35.0813 20.6735 34.8081 20.9445 34.5348 21.2153C34.2557 21.4921 33.9772 21.7695 33.6987 22.0468C33.1527 22.5904 32.606 23.1333 32.0588 23.6757C31.6304 23.5071 31.2196 23.3179 30.8057 23.1164C28.7515 22.1701 26.4838 22.0744 24.3513 22.8548C22.1018 23.8015 20.4936 25.3223 19.5342 27.5657C18.717 29.6465 18.7283 31.918 19.5979 33.9843C20.6337 36.2547 22.2881 37.7268 24.5823 38.6288C26.7014 39.3566 28.9302 39.1568 30.9503 38.2363C33.1507 37.1244 34.5746 35.3716 35.3511 33.0594C35.8871 31.1062 35.8014 28.8719 34.8156 27.0693C34.6924 26.8563 34.5659 26.6452 34.4351 26.4369C34.3244 26.1679 34.3244 26.1679 34.4013 25.9557C34.5797 25.6687 34.7841 25.4545 35.0239 25.2162C35.1214 25.1187 35.2189 25.0212 35.3194 24.9207C35.4247 24.8165 35.5301 24.7123 35.6387 24.6049C35.7476 24.4964 35.8565 24.3879 35.9654 24.2793C36.2513 23.9942 36.5379 23.7098 36.8246 23.4256C37.1174 23.1351 37.4095 22.8441 37.7016 22.5531C38.2745 21.9826 38.8481 21.4129 39.4221 20.8437C41.6849 22.6307 43.0184 25.8343 43.457 28.622C43.539 29.3388 43.5395 30.0563 43.5356 30.777C43.5353 30.8969 43.5353 30.8969 43.535 31.0192C43.5163 35.3262 41.7616 39.1795 38.8225 42.291C38.3341 42.773 37.8182 43.2014 37.2698 43.6132C37.1608 43.6955 37.0519 43.7779 36.9397 43.8628C34.0759 45.9362 30.8969 46.9239 27.3718 46.9267C27.2417 46.9268 27.2417 46.9268 27.1089 46.9269C25.8547 46.9251 24.6682 46.8805 23.4495 46.5585C23.3752 46.5409 23.301 46.5232 23.2245 46.5051C21.2765 46.0418 19.3859 45.1565 17.7854 43.953C17.6912 43.8825 17.597 43.812 17.5 43.7393C17.2112 43.5151 16.9311 43.2836 16.6526 43.0468C16.5441 42.9549 16.4356 42.8631 16.3238 42.7684C15.4453 42.0053 14.7241 41.1595 14.0471 40.2147C14.002 40.1518 13.9569 40.0889 13.9104 40.0241C12.3797 37.8509 11.353 35.2797 11.1018 32.6249C11.0944 32.5532 11.0869 32.4814 11.0793 32.4075C10.675 28.3157 11.7797 24.0588 14.387 20.8437C14.7845 20.3731 15.2059 19.9279 15.633 19.4843C15.7115 19.3974 15.7899 19.3105 15.8707 19.221C18.099 16.8295 21.3998 15.4382 24.5823 14.953C24.6786 14.9383 24.775 14.9235 24.8743 14.9083C29.1752 14.3743 33.5573 15.9498 36.9299 18.578Z" fill="#FFA113"/>
<path d="M51.5393 -0.00976562C51.8757 0.171195 52.1279 0.423356 52.3947 0.691714C52.4557 0.751772 52.5167 0.81183 52.5796 0.873708C52.7809 1.07231 52.9808 1.27215 53.1807 1.47215C53.32 1.61063 53.4593 1.74907 53.5986 1.88748C53.8903 2.17763 54.1813 2.46845 54.4719 2.75971C54.8449 3.13344 55.22 3.50507 55.5957 3.87617C55.8839 4.16139 56.1707 4.44789 56.4572 4.73478C56.595 4.8724 56.7333 5.00957 56.872 5.14627C57.0654 5.3372 57.2569 5.52982 57.4481 5.723C57.5061 5.77945 57.564 5.8359 57.6237 5.89406C57.9965 6.27604 57.9965 6.27604 58.0116 6.57374C57.8334 6.89335 57.6065 7.11935 57.3471 7.37769C57.2911 7.43392 57.2351 7.49016 57.1774 7.54809C56.9924 7.73348 56.8061 7.91763 56.6198 8.10176C56.4909 8.23031 56.3621 8.35892 56.2334 8.4876C55.9635 8.75692 55.6931 9.02568 55.4223 9.29401C55.0747 9.63836 54.7281 9.9837 54.3819 10.3294C54.116 10.5949 53.8498 10.86 53.5834 11.125C53.4555 11.2523 53.3276 11.3796 53.1998 11.507C53.0214 11.6846 52.8426 11.8619 52.6636 12.039C52.5619 12.14 52.4601 12.2411 52.3552 12.3451C51.997 12.6801 51.7874 12.7062 51.3081 12.7324C51.1283 12.7426 51.1283 12.7426 50.9448 12.753C50.8147 12.7598 50.6845 12.7667 50.5504 12.7737C50.4169 12.7811 50.2833 12.7885 50.1457 12.7961C49.8624 12.8117 49.5791 12.827 49.2957 12.8421C48.8634 12.8651 48.431 12.8889 47.9987 12.9129C47.7236 12.9279 47.4484 12.9429 47.1732 12.9578C47.0442 12.9649 46.9152 12.972 46.7823 12.9793C46.1782 13.0112 45.5777 13.0368 44.9727 13.0282C45.0025 12.163 45.0375 11.298 45.0755 10.4331C45.0827 10.27 45.0898 10.1068 45.0968 9.94367C45.1199 9.40849 45.1448 8.87345 45.1719 8.33847C45.1807 8.16143 45.1888 7.98437 45.1965 7.80729C45.2074 7.55621 45.2203 7.30531 45.2337 7.05435C45.2442 6.83668 45.2442 6.83668 45.2549 6.61461C45.3558 5.94277 45.7369 5.55138 46.2037 5.07885C46.2582 5.02334 46.3128 4.96783 46.369 4.91064C46.5483 4.72867 46.7284 4.54757 46.9086 4.36658C47.034 4.24014 47.1595 4.11368 47.2849 3.98722C47.5472 3.72306 47.81 3.45939 48.073 3.19599C48.4105 2.8579 48.7461 2.51803 49.0813 2.17768C49.3393 1.91629 49.5986 1.65617 49.8583 1.3964C49.9826 1.27156 50.1065 1.14626 50.2299 1.0205C50.4021 0.845275 50.576 0.671919 50.7504 0.49892C50.8983 0.350173 50.8983 0.350173 51.0492 0.198421C51.3164 0.000825109 51.3164 0.000825109 51.5393 -0.00976562Z" fill="#FFA113"/>
<path d="M29.5673 26.0544C28.9413 26.818 28.2426 27.5052 27.5424 28.1997C27.42 28.3216 27.2975 28.4435 27.1751 28.5654C26.8778 28.8616 26.5801 29.1573 26.2822 29.4529C26.743 30.0069 27.2274 30.526 27.7407 31.0317C27.8078 31.0984 27.875 31.1651 27.9442 31.2337C28.1074 31.3956 28.2709 31.5571 28.4345 31.7185C29.1981 31.0925 29.8853 30.3937 30.5798 29.6936C30.7017 29.5711 30.8236 29.4487 30.9455 29.3263C31.2416 29.029 31.5374 28.7313 31.8329 28.4333C32.4073 28.9606 32.4537 29.7244 32.5078 30.4702C32.5306 32.0715 31.9626 33.3775 30.8612 34.5288C29.827 35.4647 28.5736 35.9062 27.1884 35.9099C25.5888 35.8192 24.2979 35.1714 23.2236 33.9841C22.3016 32.7444 21.9755 31.3847 22.1545 29.8564C22.4099 28.4383 23.1735 27.2125 24.3564 26.3823C24.9378 26.0299 25.4953 25.7284 26.1689 25.6013C26.2397 25.5864 26.3105 25.5715 26.3835 25.5562C27.4385 25.38 28.6362 25.5338 29.5673 26.0544Z" fill="#FFA113"/>
</g>
<defs>
<clipPath id="clip0_485_17197">
<rect width="58" height="58" fill="white"/>
</clipPath>
</defs>
</svg>
